<svg width="430" height="48" fill="none" xmlns="http://www.w3.org/2000/svg"><path fill="#EEF1F6" d="M0 0h430v48H0z"/><path d="M4 44l18.7-20L4 4" stroke="#EA4335" stroke-width="10"/><path d="M34.7 44l18.7-20L34.7 4" stroke="#FBBC04" stroke-width="10"/><path d="M65.4 44L84 24 65.4 4" stroke="#34A853" stroke-width="10"/><path d="M96 44l18.8-20L96 4" stroke="#4285F4" stroke-width="10"/><path d="M126.8 44l18.7-20-18.7-20" stroke="red" stroke-width="10"/><path d="M157.5 44l18.7-20-18.7-20" stroke="#000" stroke-width="10"/><path d="M188.2 44l18.7-20-18.7-20" stroke="#00F2EA" stroke-width="10"/><path d="M218.9 44l18.7-20-18.7-20" stroke="#FF004F" stroke-width="10"/><path d="M249.6 44l18.7-20-18.7-20" stroke="#000" stroke-width="10"/><path d="M280.3 44L299 24 280.3 4" stroke="#7289DA" stroke-width="10"/><path d="M311 44l18.7-20L311 4" stroke="#F3547A" stroke-width="10"/><path d="M341.7 44l18.7-20-18.7-20" stroke="#1877F2" stroke-width="10"/><path d="M372.4 44L391 24 372.4 4" stroke="#FFC700" stroke-width="10"/><path d="M403 44l18.7-20L403 4" stroke="#29A8EA" stroke-width="10"/><path d="M0 0h430v48H0V0z" fill="#fff" fill-opacity=".3"/></svg>